<?xml version="1.0" encoding="UTF-8" standalone="no"?>
<svg
   xmlns:dc="http://purl.org/dc/elements/1.1/"
   xmlns:cc="http://creativecommons.org/ns#"
   xmlns:rdf="http://www.w3.org/1999/02/22-rdf-syntax-ns#"
   xmlns:svg="http://www.w3.org/2000/svg"
   xmlns="http://www.w3.org/2000/svg"
   xmlns:sodipodi="http://sodipodi.sourceforge.net/DTD/sodipodi-0.dtd"
   xmlns:inkscape="http://www.inkscape.org/namespaces/inkscape"
   sodipodi:docname="background_light.svg"
   inkscape:version="1.0 (4035a4fb49, 2020-05-01)"
   id="svg8"
   version="1.1"
   viewBox="0 0 210.06549 15.24911"
   height="15.24911mm"
   width="210.06549mm">
  <defs
     id="defs2" />
  <sodipodi:namedview
     fit-margin-bottom="0"
     fit-margin-right="0"
     fit-margin-left="0"
     fit-margin-top="0"
     inkscape:window-maximized="1"
     inkscape:window-y="-8"
     inkscape:window-x="-8"
     inkscape:window-height="1017"
     inkscape:window-width="1920"
     inkscape:snap-bbox="true"
     inkscape:snap-nodes="true"
     inkscape:snap-intersection-paths="true"
     inkscape:object-paths="true"
     inkscape:guide-bbox="true"
     showguides="true"
     showgrid="false"
     inkscape:document-rotation="0"
     inkscape:current-layer="layer1"
     inkscape:document-units="mm"
     inkscape:cy="42.072934"
     inkscape:cx="374.04044"
     inkscape:zoom="0.7"
     inkscape:pageshadow="2"
     inkscape:pageopacity="0.0"
     borderopacity="1.0"
     bordercolor="#666666"
     pagecolor="#ffffff"
     id="base" />
  <metadata
     id="metadata5">
    <rdf:RDF>
      <cc:Work
         rdf:about="">
        <dc:format>image/svg+xml</dc:format>
        <dc:type
           rdf:resource="http://purl.org/dc/dcmitype/StillImage" />
        <dc:title></dc:title>
      </cc:Work>
    </rdf:RDF>
  </metadata>
  <g
     transform="translate(0,-145.14544)"
     id="layer1"
     inkscape:groupmode="layer"
     inkscape:label="Layer 1">
    <g
       style="stroke-width:0.9;stroke-miterlimit:4;stroke-dasharray:none"
       transform="translate(-22.441144)"
       id="g849">
      <g
         style="stroke-width:0.9;stroke-miterlimit:4;stroke-dasharray:none"
         id="g856">
        <path
           d="m 100.65089,150.39279 c 3.16064,-1.79669 5.18739,-2.5053 9.72407,-2.31172 1.63399,4.81923 4.75614,4.21576 6.27863,5.6953 1.5225,1.47954 2.66845,4.88192 6.41023,6.48553 M 85.5398,151.82742 c 3.713852,-3.5373 8.731608,-6.90829 12.00788,-6.51853 1.324478,2.98966 6.86207,10.6689 8.3417,10.78325 m -42.105898,4.16976 c 13.03825,-3.99322 10.476891,-11.22092 20.495778,-11.68258 0.367287,3.60415 2.104357,3.50355 3.264645,5.29276 0.752377,1.16019 1.607671,2.6734 2.971449,2.99801 m -68.07421,3.39181 H 91.289558 232.5959"
           style="fill:none;stroke:#000000;stroke-width:0.7;stroke-linecap:butt;stroke-linejoin:miter;stroke-opacity:1;stroke-miterlimit:4;stroke-dasharray:none"
           id="path844" />
      </g>
    </g>
    <path
       d="m 24.532071,154.38247 c 1.336347,0.7684 1.285239,1.11972 1.285239,1.11972 0,0 -1.81529,-0.51755 -3.051411,1.01925 1.737251,-0.83522 2.972583,-0.53614 2.972583,-0.53614 0,0 -1.168402,0.28627 -1.435672,1.68944 1.102487,-1.30294 2.035971,-1.2896 2.035971,-1.2896 l -0.03341,3.86242 h 0.56689 l 0.03341,-3.9349 c 0,0 0.687287,-0.20841 2.725217,0.86067 -1.503391,-1.60362 -2.153726,-1.53238 -2.153726,-1.53238 0,0 -0.296062,-0.21463 2.309816,-0.81598 -2.3052,-0.50113 -3.021731,0.54968 -3.021731,0.54968 0,0 -0.495925,-0.82514 -2.233176,-0.99218 z"
       style="fill:#000000;stroke:#000000;stroke-width:0.264999;stroke-linecap:round;stroke-linejoin:round;stroke-miterlimit:4;stroke-dasharray:none;stroke-opacity:1;fill-opacity:1"
       id="path858-8" />
    <path
       d="m 14.597866,150.17985 c 1.336347,0.7684 1.804957,1.54494 1.804957,1.54494 0,0 -2.571243,-0.44668 -3.807364,1.09012 1.737251,-0.83522 3.468677,-0.60702 3.468677,-0.60702 0,0 -1.428261,0.45164 -1.695531,1.8548 1.102487,-1.30294 2.29583,-1.45495 2.29583,-1.45495 l -0.03341,7.65431 h 0.56689 l 0.03341,-7.72679 c 0,0 1.088887,0.12232 3.126817,1.1914 -1.503391,-1.60362 -2.555326,-1.86312 -2.555326,-1.86312 0,0 0.507137,-0.68709 3.113015,-1.28844 -2.3052,-0.50114 -3.919424,0.92766 -3.919424,0.92766 0,0 -0.66129,-1.15587 -2.398541,-1.32291 z"
       style="fill:#000000;fill-opacity:1;stroke:#000000;stroke-width:0.264999;stroke-linecap:round;stroke-linejoin:round;stroke-miterlimit:4;stroke-dasharray:none;stroke-opacity:1"
       id="path858" />
    <path
       transform="scale(0.26458333)"
       d="m 417.95117,595.80469 v 0.002 c -0.43132,0 -0.64258,0.68981 -0.64258,1.12109 v 3.29102 h -1.52539 v -2.64844 c 0,-0.30312 -0.29338,-0.68455 -0.60156,-0.68164 -0.30841,0.004 -0.59961,0.40915 -0.59961,0.72266 v 1.96484 1.94531 c 0.90822,0 1.89164,0.0195 2.76758,0.0195 v 4.17382 h 1.16211 v -3.00976 h 2.6582 v -3.08985 c 0,-0.33751 -0.22305,-0.84179 -0.56054,-0.84179 -0.33752,0 -0.5625,0.50417 -0.5625,0.84179 v 1.9668 h -1.45508 v -4.6543 c 0,-0.43128 -0.20946,-1.12304 -0.64063,-1.12304 z"
       style="fill:#000000;stroke:#000000;stroke-width:0.560421;stroke-linecap:round;stroke-linejoin:round;stroke-miterlimit:4;stroke-dasharray:none;stroke-opacity:1;fill-opacity:1"
       id="path878" />
    <path
       id="path878-2"
       style="fill:#000000;stroke:#000000;stroke-width:0.217733;stroke-linecap:round;stroke-linejoin:round;stroke-miterlimit:4;stroke-dasharray:none;stroke-opacity:1;fill-opacity:1"
       d="m 123.5307,156.41165 c -0.16757,0 -0.24929,0.26858 -0.24929,0.43612 v 1.27803 h -0.5926 v -1.02872 c 0,-0.11779 -0.11384,-0.2662 -0.23353,-0.26507 -0.11981,0.003 -0.23354,0.15904 -0.23354,0.28083 v 0.76366 0.75608 c 0.35285,0 0.7351,0.008 1.07543,0.008 v 1.62132 h 0.45188 v -1.16944 h 1.0328 v -1.19979 c 0,-0.13114 -0.0872,-0.32753 -0.21836,-0.32753 -0.13111,0 -0.21835,0.19636 -0.21835,0.32753 v 0.76367 H 123.78 v -1.80816 c 0,-0.16755 -0.0818,-0.43612 -0.2493,-0.43612 z"
       sodipodi:nodetypes="ssccscscccccccsssccss" />
    <g
       style="fill:#000000;fill-opacity:1;stroke:#000000;stroke-width:0.2;stroke-miterlimit:4;stroke-dasharray:none;stroke-opacity:1"
       transform="translate(-6.1309866,1.5318)"
       id="g949">
      <g
         style="fill:#000000;fill-opacity:1;stroke:#000000;stroke-width:0.2;stroke-miterlimit:4;stroke-dasharray:none;stroke-opacity:1"
         id="g973">
        <g
           style="fill:#000000;fill-opacity:1;stroke:#000000;stroke-width:0.2;stroke-miterlimit:4;stroke-dasharray:none;stroke-opacity:1"
           transform="translate(4.2763124)"
           id="g977">
          <g
             style="fill:#000000;fill-opacity:1"
             id="g1203">
            <path
               sodipodi:nodetypes="ccccccccccccccccccccccscccccccccccccccccccccc"
               style="fill:#000000;fill-opacity:1;stroke:#000000;stroke-width:0.2;stroke-linecap:butt;stroke-linejoin:miter;stroke-miterlimit:4;stroke-dasharray:none;stroke-opacity:1"
               d="m 144.57928,148.73006 h 1 v 1 h 1 v 1 h 1 v 1 h 1 v 1 h 1 v 1 h 1 v 1 h 1 v 1 h 1 v 1 h 1 v 1 h 1 l 0.0125,1 -7.51253,4e-5 c 0,0 0,-3.44114 -2,-3.44114 -2,0 -2,3.44114 -2,3.44114 l -7.5,-4e-5 v -1 h 1 v -1 h 1 v -1 h 1 v -1 h 1 v -1 h 1 v -1 h 1 v -1 h 1 v -1 h 1 v -1 h 1 v -1 h 1"
               id="path1199" />
          </g>
        </g>
      </g>
    </g>
    <path
       d="m 160.38161,157.64 v 5.3e-4 c -0.11412,0 -0.17001,0.18251 -0.17001,0.29662 v 0.87075 h -0.4036 v -0.70073 c 0,-0.0802 -0.0776,-0.18112 -0.15916,-0.18035 -0.0816,0.001 -0.15864,0.10825 -0.15864,0.1912 v 0.51986 0.5147 c 0.2403,0 0.50049,0.005 0.73225,0.005 v 1.10432 h 0.30748 v -0.79633 h 0.70331 v -0.81752 c 0,-0.0893 -0.059,-0.22272 -0.14831,-0.22272 -0.0893,0 -0.14883,0.13339 -0.14883,0.22272 v 0.52038 h -0.38499 v -1.23145 c 0,-0.11411 -0.0554,-0.29714 -0.1695,-0.29714 z"
       style="fill:#000000;stroke:#000000;stroke-width:0.148278;stroke-linecap:round;stroke-linejoin:round;stroke-miterlimit:4;stroke-dasharray:none;stroke-opacity:1;fill-opacity:1"
       id="path878-6" />
    <path
       id="path858-6"
       style="fill:#000000;stroke:#000000;stroke-width:0.264999;stroke-linecap:round;stroke-linejoin:round;stroke-miterlimit:4;stroke-dasharray:none;stroke-opacity:1;fill-opacity:1"
       d="m 180.39776,150.1797 c 1.33634,0.76839 1.80495,1.54494 1.80495,1.54494 0,0 -2.57124,-0.44668 -3.80736,1.09012 1.73725,-0.83522 3.46868,-0.60702 3.46868,-0.60702 0,0 -1.42826,0.45164 -1.69553,1.8548 1.10248,-1.30294 2.29583,-1.45495 2.29583,-1.45495 l -0.0334,7.65431 h 0.56689 l 0.0334,-7.72679 c 0,0 1.08888,0.12232 3.12681,1.1914 -1.50339,-1.60362 -2.55532,-1.86312 -2.55532,-1.86312 0,0 0.50713,-0.68709 3.11301,-1.28845 -2.3052,-0.50113 -3.91942,0.92767 -3.91942,0.92767 0,0 -0.66129,-1.15587 -2.39854,-1.32291 z"
       sodipodi:nodetypes="cccccccccccccc" />
    <path
       sodipodi:nodetypes="cccccccccccccc"
       d="m 173.68142,154.39681 c 1.33635,0.7684 1.28524,1.11972 1.28524,1.11972 0,0 -1.81529,-0.51755 -3.05141,1.01925 1.73725,-0.83522 2.97258,-0.53614 2.97258,-0.53614 0,0 -1.1684,0.28627 -1.43567,1.68944 1.10249,-1.30294 2.03597,-1.2896 2.03597,-1.2896 l -0.0334,3.86242 h 0.56689 l 0.0334,-3.9349 c 0,0 0.68729,-0.20841 2.72522,0.86067 -1.50339,-1.60362 -2.15373,-1.53238 -2.15373,-1.53238 0,0 -0.29606,-0.21463 2.30982,-0.81598 -2.3052,-0.50113 -3.02173,0.54968 -3.02173,0.54968 0,0 -0.49593,-0.82514 -2.23318,-0.99218 z"
       style="fill:#000000;stroke:#000000;stroke-width:0.264999;stroke-linecap:round;stroke-linejoin:round;stroke-miterlimit:4;stroke-dasharray:none;stroke-opacity:1;fill-opacity:1"
       id="path858-8-0" />
    <path
       sodipodi:nodetypes="ssccscscccccccsssccss"
       d="m 198.4664,156.41165 c -0.16757,0 -0.24929,0.26858 -0.24929,0.43612 v 1.27803 h -0.5926 v -1.02872 c 0,-0.11779 -0.11384,-0.2662 -0.23353,-0.26507 -0.11981,0.003 -0.23354,0.15904 -0.23354,0.28083 v 0.76366 0.75608 c 0.35285,0 0.7351,0.008 1.07543,0.008 v 1.62132 h 0.45188 v -1.16944 h 1.0328 v -1.19979 c 0,-0.13114 -0.0872,-0.32753 -0.21836,-0.32753 -0.13111,0 -0.21835,0.19636 -0.21835,0.32753 v 0.76367 h -0.56514 v -1.80816 c 0,-0.16755 -0.0818,-0.43612 -0.2493,-0.43612 z"
       style="fill:#000000;stroke:#000000;stroke-width:0.217733;stroke-linecap:round;stroke-linejoin:round;stroke-miterlimit:4;stroke-dasharray:none;stroke-opacity:1;fill-opacity:1"
       id="path878-2-1" />
  </g>
</svg>
