<?xml version="1.0" encoding="UTF-8" standalone="no"?>
<svg
   xmlns:dc="http://purl.org/dc/elements/1.1/"
   xmlns:cc="http://creativecommons.org/ns#"
   xmlns:rdf="http://www.w3.org/1999/02/22-rdf-syntax-ns#"
   xmlns:svg="http://www.w3.org/2000/svg"
   xmlns="http://www.w3.org/2000/svg"
   xmlns:sodipodi="http://sodipodi.sourceforge.net/DTD/sodipodi-0.dtd"
   xmlns:inkscape="http://www.inkscape.org/namespaces/inkscape"
   sodipodi:docname="tumbleweed_simple.svg"
   inkscape:version="1.0 (4035a4fb49, 2020-05-01)"
   id="svg8"
   version="1.1"
   viewBox="0 0 38.893751 38.893749"
   height="147"
   width="147">
  <defs
     id="defs2" />
  <sodipodi:namedview
     inkscape:window-maximized="1"
     inkscape:window-y="-8"
     inkscape:window-x="-8"
     inkscape:window-height="1017"
     inkscape:window-width="1920"
     units="px"
     fit-margin-bottom="0"
     fit-margin-right="0"
     fit-margin-left="0"
     fit-margin-top="0"
     inkscape:snap-global="false"
     inkscape:snap-to-guides="false"
     inkscape:snap-grids="false"
     inkscape:snap-others="false"
     inkscape:snap-nodes="false"
     showgrid="false"
     inkscape:document-rotation="0"
     inkscape:current-layer="layer1"
     inkscape:document-units="mm"
     inkscape:cy="111.8642"
     inkscape:cx="58.564417"
     inkscape:zoom="2.8"
     inkscape:pageshadow="2"
     inkscape:pageopacity="0.0"
     borderopacity="1.0"
     bordercolor="#666666"
     pagecolor="#ffffff"
     id="base" />
  <metadata
     id="metadata5">
    <rdf:RDF>
      <cc:Work
         rdf:about="">
        <dc:format>image/svg+xml</dc:format>
        <dc:type
           rdf:resource="http://purl.org/dc/dcmitype/StillImage" />
        <dc:title></dc:title>
      </cc:Work>
    </rdf:RDF>
  </metadata>
  <g
     transform="translate(-56.239414,-77.137693)"
     id="layer1"
     inkscape:groupmode="layer"
     inkscape:label="Layer 1">
    <g
       style="font-style:normal;font-variant:normal;font-weight:normal;font-stretch:normal;font-size:12.4451px;line-height:1.25;font-family:'Yu Gothic';-inkscape-font-specification:'Yu Gothic';fill:#000000;fill-opacity:1;stroke:none;stroke-width:0.311128"
       id="text873"
       aria-label="a">
      <path
         id="path2097"
         style="font-style:normal;font-variant:normal;font-weight:normal;font-stretch:normal;font-family:'Yu Gothic';-inkscape-font-specification:'Yu Gothic';stroke-width:0.311128"
         d="m 64.835713,102.95052 q 0.559057,-1.59817 2.448914,-1.59817 2.205845,0 2.205845,2.06608 v 2.19369 q 0,1.24573 0.151918,2.1147 h -0.723128 q -0.079,-0.35853 -0.139765,-1.09381 -0.820355,1.24572 -2.248382,1.24572 -0.990504,0 -1.513101,-0.57121 -0.443599,-0.48006 -0.443599,-1.23357 0,-1.68932 2.102541,-2.04177 0.820356,-0.13977 2.066081,-0.20054 v -0.33421 q 0,-0.8872 -0.388909,-1.23358 -0.340296,-0.30383 -1.081655,-0.30383 -1.336875,0 -1.713631,1.2518 z m 3.907324,1.45234 q -0.935813,0.0182 -1.90201,0.20053 -1.49487,0.30383 -1.49487,1.4341 0,0.60767 0.388909,0.93581 0.346373,0.29776 0.929737,0.29776 1.251802,0 2.078234,-1.34903 z" />
    </g>
    <g
       style="font-style:normal;font-variant:normal;font-weight:normal;font-stretch:normal;font-size:10.5833px;line-height:1.25;font-family:'Yu Gothic';-inkscape-font-specification:'Yu Gothic';fill:#000000;fill-opacity:1;stroke:none;stroke-width:0.264583"
       id="text877"
       transform="rotate(-32.628883)"
       aria-label="A">
      <path
         id="path2094"
         style="font-style:normal;font-variant:normal;font-weight:normal;font-stretch:normal;font-family:'Yu Gothic';-inkscape-font-specification:'Yu Gothic';stroke-width:0.264583"
         d="m 13.409675,132.27523 2.54764,7.71526 h -0.738971 l -0.816485,-2.54764 h -2.909374 l -0.837155,2.54764 H 9.9577003 l 2.5528077,-7.71526 z m 0.831988,4.60435 -0.640786,-2.0102 Q 13.254646,133.82035 12.98593,132.823 h -0.09818 q -0.279052,1.03352 -0.599445,2.03604 l -0.635618,2.02054 z" />
    </g>
    <g
       style="font-style:normal;font-variant:normal;font-weight:normal;font-stretch:normal;font-size:12.4099px;line-height:1.25;font-family:'Yu Gothic';-inkscape-font-specification:'Yu Gothic';fill:#000000;fill-opacity:1;stroke:none;stroke-width:0.310248"
       id="text881"
       aria-label="z">
      <path
         id="path2091"
         style="font-style:normal;font-variant:normal;font-weight:normal;font-stretch:normal;font-family:'Yu Gothic';-inkscape-font-specification:'Yu Gothic';stroke-width:0.310248"
         d="m 76.764078,99.569003 v 0.521117 L 73.18896,105.168 h 3.66601 v 0.60595 h -4.532522 v -0.54535 l 3.562999,-5.05365 h -3.375153 v -0.605947 z" />
    </g>
    <g
       style="font-style:normal;font-variant:normal;font-weight:normal;font-stretch:normal;font-size:5.8172px;line-height:1.25;font-family:'Yu Gothic';-inkscape-font-specification:'Yu Gothic';fill:#000000;fill-opacity:1;stroke:none;stroke-width:0.14543"
       id="text885"
       aria-label="Z">
      <path
         id="path2088"
         style="font-style:normal;font-variant:normal;font-weight:normal;font-stretch:normal;font-family:'Yu Gothic';-inkscape-font-specification:'Yu Gothic';stroke-width:0.14543"
         d="m 73.194507,93.25046 v 0.286884 l -2.476855,3.627229 h 2.493898 v 0.326649 h -2.959728 v -0.286883 l 2.465493,-3.627229 h -2.349036 v -0.32665 z" />
    </g>
    <g
       style="font-style:normal;font-variant:normal;font-weight:normal;font-stretch:normal;font-size:7.65097px;line-height:1.25;font-family:'Yu Gothic';-inkscape-font-specification:'Yu Gothic';fill:#000000;fill-opacity:1;stroke:none;stroke-width:0.191275"
       id="text889"
       aria-label="ж">
      <path
         id="path2085"
         style="font-style:normal;font-variant:normal;font-weight:normal;font-stretch:normal;font-family:'Yu Gothic';-inkscape-font-specification:'Yu Gothic';stroke-width:0.191275"
         d="m 77.745851,102.26727 -0.706071,-0.80321 -1.161841,2.05097 h -0.481922 l 1.371048,-2.32742 -1.217879,-1.498064 h 0.496865 l 1.6998,2.080854 v -2.080854 h 0.42962 v 2.110744 l 1.696065,-2.110744 h 0.508072 l -1.232822,1.505534 1.367312,2.31995 h -0.489393 l -1.146899,-2.03602 -0.702335,0.78826 v 1.24776 h -0.42962 z" />
    </g>
    <g
       style="font-style:normal;font-variant:normal;font-weight:normal;font-stretch:normal;font-size:7.75306px;line-height:1.25;font-family:'Yu Gothic';-inkscape-font-specification:'Yu Gothic';fill:#000000;fill-opacity:1;stroke:none;stroke-width:0.193827"
       id="text893"
       aria-label="п">
      <path
         id="path2082"
         style="font-style:normal;font-variant:normal;font-weight:normal;font-stretch:normal;font-family:'Yu Gothic';-inkscape-font-specification:'Yu Gothic';stroke-width:0.193827"
         d="m 78.413554,108.57671 v 3.87653 h -0.473209 v -3.49039 h -1.976122 v 3.49039 h -0.473209 v -3.87653 z" />
    </g>
    <g
       style="font-style:normal;font-variant:normal;font-weight:normal;font-stretch:normal;font-size:10.5833px;line-height:1.25;font-family:'Yu Gothic';-inkscape-font-specification:'Yu Gothic';fill:#000000;fill-opacity:1;stroke:none;stroke-width:0.264583"
       id="text897"
       transform="rotate(159.31058)"
       aria-label="д">
      <path
         id="path2079"
         style="font-style:normal;font-variant:normal;font-weight:normal;font-stretch:normal;font-family:'Yu Gothic';-inkscape-font-specification:'Yu Gothic';stroke-width:0.264583"
         d="m -45.692006,-129.13173 h 0.63045 v 1.45727 h -0.537433 v -0.95084 h -4.309801 v 0.95084 h -0.537433 v -1.45727 h 0.614948 q 0.568439,-1.34358 0.568439,-3.30212 v -1.4831 h 3.57083 z m -0.635618,0 v -4.26846 h -2.30993 v 0.97668 q 0,1.92236 -0.552936,3.29178 z" />
    </g>
    <g
       style="font-style:normal;font-variant:normal;font-weight:normal;font-stretch:normal;font-size:10.5833px;line-height:1.25;font-family:'Yu Gothic';-inkscape-font-specification:'Yu Gothic';fill:#000000;fill-opacity:1;stroke:none;stroke-width:0.264583"
       id="text901"
       transform="rotate(-34.250317)"
       aria-label="й">
      <path
         id="path2076"
         style="font-style:normal;font-variant:normal;font-weight:normal;font-stretch:normal;font-family:'Yu Gothic';-inkscape-font-specification:'Yu Gothic';stroke-width:0.264583"
         d="m -4.5363442,108.42331 q 0.072347,0.81648 0.8113174,0.81648 0.7389706,0 0.8268203,-0.81648 h 0.3617339 q 0,0.69246 -0.346231,1.03869 -0.30489,0.30489 -0.8423232,0.30489 -0.6046123,0 -0.9095023,-0.39791 -0.263549,-0.34623 -0.263549,-0.94567 z m -1.2402304,2.42361 h 0.6046123 v 3.00756 l -0.031006,1.6278 h 0.093017 q 0.098185,-0.18603 0.387572,-0.77514 0.2015375,-0.40307 0.346231,-0.66662 l 1.7104845,-3.1936 h 0.9766815 v 5.29165 h -0.6046124 v -3.19876 l 0.031006,-1.58646 h -0.093017 q -0.3669015,0.81132 -0.6872944,1.41076 l -1.8448427,3.37446 h -0.8888318 z" />
    </g>
    <g
       style="font-style:normal;font-variant:normal;font-weight:normal;font-stretch:normal;font-size:7.921px;line-height:1.25;font-family:'Yu Gothic';-inkscape-font-specification:'Yu Gothic';fill:#000000;fill-opacity:1;stroke:none;stroke-width:0.198025"
       id="text905"
       aria-label="θ">
      <path
         id="path2073"
         style="font-style:normal;font-variant:normal;font-weight:normal;font-stretch:normal;font-family:'Yu Gothic';-inkscape-font-specification:'Yu Gothic';stroke-width:0.198025"
         d="m 83.203424,92.360875 q 0.649769,0 0.978522,0.510533 0.290075,0.444783 0.290075,1.218318 0,1.044273 -0.28234,2.003456 -0.297811,1.001728 -0.81608,1.593483 -0.572416,0.649769 -1.303406,0.649769 -1.31501,0 -1.31501,-1.782998 0,-0.831551 0.270737,-1.76366 0.301679,-1.044273 0.812212,-1.678572 0.603358,-0.750329 1.36529,-0.750329 z m 0.680711,2.69577 q 0.08896,-0.44865 0.08896,-0.990125 0.0116,-1.311142 -0.792873,-1.311142 -0.64977,0 -1.140965,0.81608 -0.348091,0.584019 -0.56468,1.485187 z m -0.06188,0.394503 h -2.425033 q -0.143104,0.66524 -0.143104,1.1487 0,1.342083 0.81608,1.342083 0.672975,0 1.191244,-0.889565 0.394503,-0.676843 0.560813,-1.601218 z" />
    </g>
    <g
       style="font-style:normal;font-variant:normal;font-weight:normal;font-stretch:normal;font-size:13.0638px;line-height:1.25;font-family:'Yu Gothic';-inkscape-font-specification:'Yu Gothic';fill:#000000;fill-opacity:1;stroke:none;stroke-width:0.326596"
       id="text909"
       transform="rotate(26.595802)"
       aria-label="ζ">
      <path
         id="path2070"
         style="font-style:normal;font-variant:normal;font-weight:normal;font-stretch:normal;font-family:'Yu Gothic';-inkscape-font-specification:'Yu Gothic';stroke-width:0.326596"
         d="m 126.75564,40.728283 -0.1531,0.612366 q -2.2262,1.275762 -3.62316,2.953388 -1.684,2.047598 -1.684,3.80177 0,1.435232 1.40971,1.435232 h 1.51816 q 0.61874,0 0.95682,0.363592 0.2998,0.318941 0.2998,0.829245 0,0.53582 -0.31894,1.116292 -0.24239,0.433759 -0.5996,0.778214 h -0.83563 q 0.96958,-0.90579 0.96958,-1.779687 0,-0.287047 -0.21688,-0.446517 -0.19136,-0.140334 -0.47841,-0.140334 h -1.55643 q -1.00147,0 -1.53091,-0.599608 -0.47841,-0.535819 -0.47841,-1.467126 0,-1.033366 0.59323,-2.238961 0.5103,-1.026988 1.36506,-1.990189 1.26938,-1.428853 3.06821,-2.577038 h -3.60403 l 0.18499,-0.650639 z" />
    </g>
    <g
       style="font-style:normal;font-variant:normal;font-weight:normal;font-stretch:normal;font-size:10.5833px;line-height:1.25;font-family:'Yu Gothic';-inkscape-font-specification:'Yu Gothic';fill:#000000;fill-opacity:1;stroke:none;stroke-width:0.264583"
       id="text913"
       transform="rotate(6.298556)"
       aria-label="ψ">
      <path
         id="path2067"
         style="font-style:normal;font-variant:normal;font-weight:normal;font-stretch:normal;font-family:'Yu Gothic';-inkscape-font-specification:'Yu Gothic';stroke-width:0.264583"
         d="m 93.148434,73.072922 -0.940508,3.400298 q -0.30489,1.121375 -0.981849,1.591629 -0.594277,0.41341 -1.663976,0.449584 l -0.475422,1.767328 h -0.656288 l 0.496092,-1.787999 q -0.868161,-0.09819 -1.281571,-0.542601 -0.335896,-0.351398 -0.335896,-0.888832 0,-0.408242 0.12919,-0.84749 l 0.852659,-3.141917 h 0.645953 l -0.899167,3.312448 q -0.103352,0.39274 -0.103352,0.69763 0,0.842323 1.121375,0.93534 l 1.999871,-7.508561 h 0.635618 l -1.999871,7.529232 q 0.878496,-0.05684 1.317745,-0.496092 0.361733,-0.361734 0.573606,-1.136878 l 0.91467,-3.333119 z" />
    </g>
    <g
       style="font-style:normal;font-variant:normal;font-weight:normal;font-stretch:normal;font-size:10.5833px;line-height:1.25;font-family:'Yu Gothic';-inkscape-font-specification:'Yu Gothic';fill:#000000;fill-opacity:1;stroke:none;stroke-width:0.264583"
       id="text917"
       aria-label="Ω">
      <path
         id="path2064"
         style="font-style:normal;font-variant:normal;font-weight:normal;font-stretch:normal;font-family:'Yu Gothic';-inkscape-font-specification:'Yu Gothic';stroke-width:0.264583"
         d="m 71.917047,82.148545 q 1.519282,0 2.449455,1.147213 0.821652,1.007687 0.821652,2.506299 0,1.24023 -0.671791,2.284091 -0.496092,0.775144 -1.30741,1.353918 h 1.989537 v 0.573607 h -2.775016 v -0.542601 q 2.036045,-1.421098 2.036045,-3.669015 0,-1.431433 -0.795815,-2.299594 -0.697629,-0.759641 -1.746657,-0.759641 -1.204057,0 -1.932693,0.981849 -0.63045,0.847491 -0.63045,2.077386 0,2.284091 2.04638,3.669015 v 0.542601 h -2.775016 v -0.573607 h 1.979201 q -1.979201,-1.395259 -1.979201,-3.627674 0,-1.72082 1.069699,-2.769848 0.909502,-0.893999 2.22208,-0.893999 z" />
    </g>
    <g
       style="font-style:normal;font-variant:normal;font-weight:normal;font-stretch:normal;font-size:10.4769px;line-height:1.25;font-family:'Yu Gothic';-inkscape-font-specification:'Yu Gothic';fill:#000000;fill-opacity:1;stroke:none;stroke-width:0.261922"
       id="text921"
       transform="matrix(0.64821335,-0.75924709,0.77475299,0.63524001,0,0)"
       aria-label=" λ">
      <path
         id="path2059"
         style="font-style:normal;font-variant:normal;font-weight:normal;font-stretch:normal;font-family:'Yu Gothic';-inkscape-font-specification:'Yu Gothic';stroke-width:0.261922"
         d="m -48.69133,129.6687 q 0,0 0,0 z" />
      <path
         id="path2061"
         style="font-style:normal;font-variant:normal;font-weight:normal;font-stretch:normal;font-family:'Yu Gothic';-inkscape-font-specification:'Yu Gothic';stroke-width:0.261922"
         d="m -41.196868,121.68313 q 0.204627,-0.0205 0.322288,-0.0205 0.557608,0 0.808276,0.30694 0.214859,0.26602 0.281362,0.85944 l 0.608766,5.48911 q 0.04604,0.43484 0.225089,0.60365 0.143239,0.14324 0.424601,0.14324 0.173933,0 0.373444,-0.0358 l -0.133007,0.50134 q -0.194396,0.0358 -0.368329,0.0358 -0.593418,0 -0.854317,-0.30183 -0.230206,-0.27113 -0.286478,-0.87478 l -0.358097,-3.38146 -2.588531,4.43018 h -0.752004 l 3.22799,-5.28961 -0.148355,-1.25846 q -0.05116,-0.4246 -0.204627,-0.5883 -0.133007,-0.13812 -0.393906,-0.13812 -0.199512,0 -0.332519,0.0256 z" />
    </g>
    <g
       style="font-style:normal;font-variant:normal;font-weight:normal;font-stretch:normal;font-size:11.6259px;line-height:1.25;font-family:'Yu Gothic';-inkscape-font-specification:'Yu Gothic';fill:#000000;fill-opacity:1;stroke:none;stroke-width:0.290648"
       id="text873-7"
       transform="matrix(0.60653366,0.7900954,-0.81338146,0.58916937,0,0)"
       aria-label="a">
      <path
         id="path2056"
         style="font-style:normal;font-variant:normal;font-weight:normal;font-stretch:normal;font-family:'Yu Gothic';-inkscape-font-specification:'Yu Gothic';stroke-width:0.290648"
         d="m 110.67427,4.7588176 q 0.52226,-1.4929745 2.28772,-1.4929745 2.06064,0 2.06064,1.9300811 v 2.049292 q 0,1.1637254 0.14192,1.9754948 h -0.67553 q -0.0738,-0.3349258 -0.13056,-1.0218076 -0.76636,1.1637253 -2.10039,1.1637253 -0.9253,0 -1.4135,-0.5336106 -0.4144,-0.44846 -0.4144,-1.152372 0,-1.5781251 1.96414,-1.9073742 0.76636,-0.1305644 1.93009,-0.1873314 v -0.312219 q 0,-0.8287996 -0.36331,-1.152372 -0.3179,-0.2838355 -1.01046,-0.2838355 -1.24887,0 -1.60083,1.1694021 z m 3.65013,1.3567335 q -0.87422,0.01703 -1.77681,0.1873314 -1.39647,0.2838355 -1.39647,1.3397034 0,0.5676709 0.3633,0.8742132 0.32358,0.2781587 0.86854,0.2781587 1.1694,0 1.94144,-1.2602294 z" />
    </g>
    <g
       style="font-style:normal;font-variant:normal;font-weight:normal;font-stretch:normal;font-size:9.88662px;line-height:1.25;font-family:'Yu Gothic';-inkscape-font-specification:'Yu Gothic';fill:#000000;fill-opacity:1;stroke:none;stroke-width:0.247166"
       id="text877-8"
       transform="matrix(0.94938248,0.34772566,-0.35797399,0.92220288,0,0)"
       aria-label="A">
      <path
         id="path2053"
         style="font-style:normal;font-variant:normal;font-weight:normal;font-stretch:normal;font-family:'Yu Gothic';-inkscape-font-specification:'Yu Gothic';stroke-width:0.247166"
         d="m 104.84816,71.527102 2.37993,7.207384 h -0.69032 l -0.76274,-2.379933 h -2.71785 l -0.78205,2.379933 h -0.65171 l 2.38477,-7.207384 z m 0.77722,4.301258 -0.5986,-1.877878 q -0.32344,-0.979973 -0.57447,-1.911671 h -0.0917 q -0.26068,0.965491 -0.55999,1.902016 l -0.59377,1.887533 z" />
    </g>
    <g
       style="font-style:normal;font-variant:normal;font-weight:normal;font-stretch:normal;font-size:11.593px;line-height:1.25;font-family:'Yu Gothic';-inkscape-font-specification:'Yu Gothic';fill:#000000;fill-opacity:1;stroke:none;stroke-width:0.289825"
       id="text881-2"
       transform="matrix(-0.18771773,0.97821054,-0.98069823,-0.21665855,0,0)"
       aria-label="z">
      <path
         id="path2050"
         style="font-style:normal;font-variant:normal;font-weight:normal;font-stretch:normal;font-family:'Yu Gothic';-inkscape-font-specification:'Yu Gothic';stroke-width:0.289825"
         d="m 91.985003,-99.557958 v 0.486815 l -3.33978,4.74362 h 3.42469 v 0.566065 h -4.234162 v -0.509458 l 3.328459,-4.720978 h -3.15298 v -0.566064 z" />
    </g>
    <g
       style="font-style:normal;font-variant:normal;font-weight:normal;font-stretch:normal;font-size:5.43428px;line-height:1.25;font-family:'Yu Gothic';-inkscape-font-specification:'Yu Gothic';fill:#000000;fill-opacity:1;stroke:none;stroke-width:0.135857"
       id="text885-1"
       transform="matrix(0.60653366,0.7900954,-0.81338146,0.58916937,0,0)"
       aria-label="Z">
      <path
         id="path2047"
         style="font-style:normal;font-variant:normal;font-weight:normal;font-stretch:normal;font-family:'Yu Gothic';-inkscape-font-specification:'Yu Gothic';stroke-width:0.135857"
         d="m 120.76763,-3.0847981 v 0.2679992 l -2.31381,3.38846458 h 2.32973 v 0.30514756 h -2.7649 V 0.60881408 l 2.3032,-3.38846458 h -2.19441 v -0.3051476 z" />
    </g>
    <g
       style="font-style:normal;font-variant:normal;font-weight:normal;font-stretch:normal;font-size:7.14733px;line-height:1.25;font-family:'Yu Gothic';-inkscape-font-specification:'Yu Gothic';fill:#000000;fill-opacity:1;stroke:none;stroke-width:0.178684"
       id="text889-2"
       transform="matrix(0.60653366,0.7900954,-0.81338146,0.58916937,0,0)"
       aria-label="ж">
      <path
         id="path2044"
         style="font-style:normal;font-variant:normal;font-weight:normal;font-stretch:normal;font-family:'Yu Gothic';-inkscape-font-specification:'Yu Gothic';stroke-width:0.178684"
         d="m 107.97123,-2.3061365 -0.65959,-0.75033 -1.08536,1.915959 h -0.4502 l 1.28079,-2.1742121 -1.13771,-1.3994528 h 0.46416 l 1.58791,1.9438783 v -1.9438783 h 0.40134 v 1.9717975 l 1.58442,-1.9717975 h 0.47462 l -1.15167,1.4064326 1.27731,2.1672323 h -0.45718 l -1.0714,-1.9019994 -0.6561,0.7363704 v 1.165629 h -0.40134 z" />
    </g>
    <g
       style="font-style:normal;font-variant:normal;font-weight:normal;font-stretch:normal;font-size:7.24269px;line-height:1.25;font-family:'Yu Gothic';-inkscape-font-specification:'Yu Gothic';fill:#000000;fill-opacity:1;stroke:none;stroke-width:0.181068"
       id="text893-0"
       transform="matrix(0.60653366,0.7900954,-0.81338146,0.58916937,0,0)"
       aria-label="п">
      <path
         id="path2041"
         style="font-style:normal;font-variant:normal;font-weight:normal;font-stretch:normal;font-family:'Yu Gothic';-inkscape-font-specification:'Yu Gothic';stroke-width:0.181068"
         d="m 125.98496,5.9835939 v 3.621345 H 125.5429 V 6.3443138 h -1.84603 v 3.2606251 h -0.44206 v -3.621345 z" />
    </g>
    <g
       style="font-style:normal;font-variant:normal;font-weight:normal;font-stretch:normal;font-size:9.88662px;line-height:1.25;font-family:'Yu Gothic';-inkscape-font-specification:'Yu Gothic';fill:#000000;fill-opacity:1;stroke:none;stroke-width:0.247166"
       id="text897-0"
       transform="matrix(0.77528665,0.62535145,-0.6520672,0.7638837,0,0)"
       aria-label="д">
      <path
         id="path2038"
         style="font-style:normal;font-variant:normal;font-weight:normal;font-stretch:normal;font-family:'Yu Gothic';-inkscape-font-specification:'Yu Gothic';stroke-width:0.247166"
         d="m 135.40306,37.936921 h 0.58895 v 1.361342 h -0.50206 v -0.888251 h -4.02609 v 0.888251 h -0.50206 v -1.361342 h 0.57447 q 0.53102,-1.255137 0.53102,-3.084741 v -1.385478 h 3.33577 z m -0.59378,0 v -3.987474 h -2.15787 v 0.912388 q 0,1.795812 -0.51654,3.075086 z" />
    </g>
    <g
       style="font-style:normal;font-variant:normal;font-weight:normal;font-stretch:normal;font-size:9.88662px;line-height:1.25;font-family:'Yu Gothic';-inkscape-font-specification:'Yu Gothic';fill:#000000;fill-opacity:1;stroke:none;stroke-width:0.247166"
       id="text901-2"
       transform="matrix(0.95913142,0.32149219,-0.33096735,0.93167272,0,0)"
       aria-label="й">
      <path
         id="path2035"
         style="font-style:normal;font-variant:normal;font-weight:normal;font-stretch:normal;font-family:'Yu Gothic';-inkscape-font-specification:'Yu Gothic';stroke-width:0.247166"
         d="m 96.840441,50.771074 q 0.06758,0.762738 0.757909,0.762738 0.690326,0 0.772393,-0.762738 h 0.337921 q 0,0.646879 -0.323439,0.970318 -0.28482,0.28482 -0.786875,0.28482 -0.564811,0 -0.849631,-0.371714 -0.2462,-0.323439 -0.2462,-0.883424 z m -1.158589,2.264075 h 0.564812 v 2.809576 l -0.02896,1.520647 h 0.08689 q 0.09172,-0.173788 0.362058,-0.724117 0.188271,-0.376541 0.32344,-0.622741 l 1.597886,-2.983365 h 0.912388 v 4.94331 h -0.564812 v -2.988192 l 0.02896,-1.482028 h -0.08689 q -0.342749,0.75791 -0.642051,1.317894 l -1.7234,3.152326 h -0.830322 z" />
    </g>
    <g
       style="font-style:normal;font-variant:normal;font-weight:normal;font-stretch:normal;font-size:7.39957px;line-height:1.25;font-family:'Yu Gothic';-inkscape-font-specification:'Yu Gothic';fill:#000000;fill-opacity:1;stroke:none;stroke-width:0.184989"
       id="text905-0"
       transform="matrix(0.60653366,0.7900954,-0.81338146,0.58916937,0,0)"
       aria-label="θ">
      <path
         id="path2032"
         style="font-style:normal;font-variant:normal;font-weight:normal;font-stretch:normal;font-family:'Yu Gothic';-inkscape-font-specification:'Yu Gothic';stroke-width:0.184989"
         d="m 132.20938,-3.998995 q 0.60699,0 0.9141,0.4769254 0.27098,0.4155032 0.27098,1.1381175 0,0.9755292 -0.26375,1.87157088 -0.27821,0.93578546 -0.76236,1.48858537 -0.53473,0.60699595 -1.2176,0.60699595 -1.22845,0 -1.22845,-1.66562584 0,-0.77681032 0.25292,-1.64756046 0.28182,-0.9755293 0.75874,-1.568073 0.56364,-0.7009358 1.27542,-0.7009358 z m 0.6359,2.5183107 q 0.0831,-0.4191163 0.0831,-0.9249463 0.0108,-1.2248311 -0.74068,-1.2248311 -0.607,0 -1.06586,0.762358 -0.32518,0.5455738 -0.52751,1.3874194 z m -0.0578,0.3685332 h -2.2654 q -0.13368,0.62144831 -0.13368,1.07308222 0,1.25373578 0.76236,1.25373578 0.62867,0 1.11282,-0.83100644 0.36853,-0.63228748 0.5239,-1.49581156 z" />
    </g>
    <g
       style="font-style:normal;font-variant:normal;font-weight:normal;font-stretch:normal;font-size:12.2038px;line-height:1.25;font-family:'Yu Gothic';-inkscape-font-specification:'Yu Gothic';fill:#000000;fill-opacity:1;stroke:none;stroke-width:0.305097"
       id="text909-3"
       transform="matrix(0.60653366,0.7900954,-0.81338146,0.58916937,0,0)"
       aria-label="ζ">
      <path
         id="path2029"
         style="font-style:normal;font-variant:normal;font-weight:normal;font-stretch:normal;font-family:'Yu Gothic';-inkscape-font-specification:'Yu Gothic';stroke-width:0.305097"
         d="m 142.77889,-6.7327604 -0.14302,0.5720532 q -2.07965,1.1917773 -3.38464,2.7589646 -1.57315,1.9128026 -1.57315,3.5514965 0,1.3407495 1.31691,1.3407495 h 1.41822 q 0.57801,0 0.89383,0.3396566 0.28007,0.2979443 0.28007,0.7746553 0,0.5005465 -0.29794,1.0428052 -0.22644,0.4052043 -0.56014,0.7269842 h -0.78061 q 0.90575,-0.846162 0.90575,-1.6625295 0,-0.2681499 -0.20261,-0.417122 -0.17876,-0.1310956 -0.44691,-0.1310956 h -1.45397 q -0.93555,0 -1.43013,-0.5601353 -0.44692,-0.5005465 -0.44692,-1.37054398 0,-0.96533967 0.55418,-2.09156932 0.47671,-0.9593807 1.2752,-1.8591726 1.18582,-1.3347907 2.86622,-2.4073903 h -3.36677 l 0.17281,-0.6078065 z" />
    </g>
    <g
       style="font-style:normal;font-variant:normal;font-weight:normal;font-stretch:normal;font-size:9.88662px;line-height:1.25;font-family:'Yu Gothic';-inkscape-font-specification:'Yu Gothic';fill:#000000;fill-opacity:1;stroke:none;stroke-width:0.247166"
       id="text913-7"
       transform="matrix(0.28763195,0.94514992,-0.97300582,0.27939742,0,0)"
       aria-label="ψ">
      <path
         id="path2026"
         style="font-style:normal;font-variant:normal;font-weight:normal;font-stretch:normal;font-family:'Yu Gothic';-inkscape-font-specification:'Yu Gothic';stroke-width:0.247166"
         d="m 120.15502,-57.138138 -0.87859,3.176463 q -0.28482,1.047557 -0.91722,1.486855 -0.55516,0.386196 -1.55444,0.419988 l -0.44412,1.650989 h -0.61309 l 0.46343,-1.670298 q -0.81101,-0.09172 -1.1972,-0.506883 -0.31379,-0.328267 -0.31379,-0.830321 0,-0.381369 0.12069,-0.791702 l 0.79653,-2.935091 h 0.60343 l -0.83998,3.094397 q -0.0965,0.366886 -0.0965,0.651705 0,0.786875 1.04756,0.873769 l 1.86822,-7.014286 h 0.59378 l -1.86822,7.033596 q 0.82066,-0.0531 1.231,-0.463435 0.33792,-0.337922 0.53584,-1.06204 l 0.85446,-3.113706 z" />
    </g>
    <g
       style="font-style:normal;font-variant:normal;font-weight:normal;font-stretch:normal;font-size:9.88662px;line-height:1.25;font-family:'Yu Gothic';-inkscape-font-specification:'Yu Gothic';fill:#000000;fill-opacity:1;stroke:none;stroke-width:0.247166"
       id="text917-9"
       transform="matrix(0.60653366,0.7900954,-0.81338146,0.58916937,0,0)"
       aria-label="Ω">
      <path
         id="path2023"
         style="font-style:normal;font-variant:normal;font-weight:normal;font-stretch:normal;font-family:'Yu Gothic';-inkscape-font-specification:'Yu Gothic';stroke-width:0.247166"
         d="m 118.88762,-14.517001 q 1.41927,0 2.28821,1.071695 0.76757,0.941352 0.76757,2.341313 0,1.1585885 -0.62757,2.1337335 -0.46343,0.7241177 -1.22134,1.2647922 h 1.85856 v 0.5358471 h -2.59234 v -0.5068824 q 1.90202,-1.327549 1.90202,-3.4274904 0,-1.337204 -0.74343,-2.148215 -0.6517,-0.709636 -1.63168,-0.709636 -1.12479,0 -1.80546,0.917216 -0.58895,0.791702 -0.58895,1.940635 0,2.1337335 1.91167,3.4274904 v 0.5068824 h -2.59234 v -0.5358471 h 1.84891 q -1.84891,-1.3034118 -1.84891,-3.3888707 0,-1.607541 0.99928,-2.587514 0.84963,-0.835149 2.0758,-0.835149 z" />
    </g>
    <g
       style="font-style:normal;font-variant:normal;font-weight:normal;font-stretch:normal;font-size:9.88662px;line-height:1.25;font-family:'Yu Gothic';-inkscape-font-specification:'Yu Gothic';fill:#000000;fill-opacity:1;stroke:none;stroke-width:0.247166"
       id="text921-9"
       transform="matrix(1.0130407,0.05512953,-0.05675432,0.98403861,0,0)"
       aria-label=" λ">
      <path
         id="path2018"
         style="font-style:normal;font-variant:normal;font-weight:normal;font-stretch:normal;font-family:'Yu Gothic';-inkscape-font-specification:'Yu Gothic';stroke-width:0.247166"
         d="m 62.20216,88.447205 q 0,0 0,0 z" />
      <path
         id="path2020"
         style="font-style:normal;font-variant:normal;font-weight:normal;font-stretch:normal;font-family:'Yu Gothic';-inkscape-font-specification:'Yu Gothic';stroke-width:0.247166"
         d="m 69.274375,80.911554 q 0.193098,-0.01931 0.30413,-0.01931 0.526192,0 0.762737,0.289647 0.202753,0.251027 0.26551,0.811012 l 0.574467,5.179855 q 0.04345,0.410333 0.212407,0.569639 0.135169,0.135168 0.400679,0.135168 0.164133,0 0.352404,-0.03379 l -0.125514,0.47309 q -0.183443,0.03379 -0.347576,0.03379 -0.559985,0 -0.806185,-0.28482 -0.217235,-0.255855 -0.270337,-0.825494 l -0.337922,-3.190945 -2.44269,4.180572 H 67.10685 l 3.046122,-4.991584 -0.139997,-1.187553 q -0.04827,-0.400678 -0.193098,-0.555157 -0.125513,-0.130341 -0.371713,-0.130341 -0.188271,0 -0.313785,0.02414 z" />
    </g>
    <g
       style="font-style:normal;font-variant:normal;font-weight:normal;font-stretch:normal;font-size:12.4451px;line-height:1.25;font-family:'Yu Gothic';-inkscape-font-specification:'Yu Gothic';fill:#000000;fill-opacity:1;stroke:none;stroke-width:0.311129"
       id="text873-5"
       transform="rotate(-18.250525)"
       aria-label="a">
      <path
         id="path2015"
         style="font-style:normal;font-variant:normal;font-weight:normal;font-stretch:normal;font-family:'Yu Gothic';-inkscape-font-specification:'Yu Gothic';stroke-width:0.311129"
         d="m 40.203294,111.79522 q 0.559057,-1.59818 2.448913,-1.59818 2.205846,0 2.205846,2.06608 v 2.1937 q 0,1.24572 0.151917,2.11469 h -0.723128 q -0.079,-0.35852 -0.139764,-1.09381 -0.820356,1.24573 -2.248383,1.24573 -0.990503,0 -1.5131,-0.57121 -0.4436,-0.48006 -0.4436,-1.23357 0,-1.68933 2.102541,-2.04178 0.820356,-0.13976 2.066081,-0.20053 v -0.33422 q 0,-0.8872 -0.388909,-1.23357 -0.340296,-0.30384 -1.081654,-0.30384 -1.336876,0 -1.713632,1.25181 z m 3.907323,1.45233 q -0.935813,0.0182 -1.902009,0.20053 -1.494871,0.30384 -1.494871,1.43411 0,0.60767 0.38891,0.93581 0.346372,0.29776 0.929736,0.29776 1.251802,0 2.078234,-1.34903 z" />
    </g>
    <g
       style="font-style:normal;font-variant:normal;font-weight:normal;font-stretch:normal;font-size:10.5833px;line-height:1.25;font-family:'Yu Gothic';-inkscape-font-specification:'Yu Gothic';fill:#000000;fill-opacity:1;stroke:none;stroke-width:0.264583"
       id="text877-1"
       transform="rotate(-50.879409)"
       aria-label="A">
      <path
         id="path2012"
         style="font-style:normal;font-variant:normal;font-weight:normal;font-stretch:normal;font-family:'Yu Gothic';-inkscape-font-specification:'Yu Gothic';stroke-width:0.264583"
         d="m -16.759912,126.45641 2.54764,7.71527 h -0.738971 l -0.816485,-2.54764 h -2.909374 l -0.837155,2.54764 h -0.69763 l 2.552808,-7.71527 z m 0.831988,4.60436 -0.640786,-2.01021 q -0.346231,-1.04903 -0.614948,-2.04638 h -0.09818 q -0.279052,1.03352 -0.599445,2.03604 l -0.635618,2.02055 z" />
    </g>
    <g
       style="font-style:normal;font-variant:normal;font-weight:normal;font-stretch:normal;font-size:12.4099px;line-height:1.25;font-family:'Yu Gothic';-inkscape-font-specification:'Yu Gothic';fill:#000000;fill-opacity:1;stroke:none;stroke-width:0.310248"
       id="text881-1"
       transform="rotate(-122.20326)"
       aria-label="z">
      <path
         id="path2009"
         style="font-style:normal;font-variant:normal;font-weight:normal;font-stretch:normal;font-family:'Yu Gothic';-inkscape-font-specification:'Yu Gothic';stroke-width:0.310248"
         d="m -130.96831,15.850378 v 0.521119 l -3.57512,5.077879 h 3.66601 v 0.605952 h -4.53252 v -0.545357 l 3.563,-5.05364 h -3.37516 v -0.605953 z" />
    </g>
    <g
       style="font-style:normal;font-variant:normal;font-weight:normal;font-stretch:normal;font-size:5.81721px;line-height:1.25;font-family:'Yu Gothic';-inkscape-font-specification:'Yu Gothic';fill:#000000;fill-opacity:1;stroke:none;stroke-width:0.14543"
       id="text885-6"
       transform="rotate(-18.250525)"
       aria-label="Z">
      <path
         id="path2006"
         style="font-style:normal;font-variant:normal;font-weight:normal;font-stretch:normal;font-family:'Yu Gothic';-inkscape-font-specification:'Yu Gothic';stroke-width:0.14543"
         d="m 57.132825,104.7912 v 0.28689 l -2.476859,3.62723 h 2.493902 v 0.32665 h -2.959733 v -0.28688 l 2.465497,-3.62724 h -2.349039 v -0.32665 z" />
    </g>
    <g
       style="font-style:normal;font-variant:normal;font-weight:normal;font-stretch:normal;font-size:7.65098px;line-height:1.25;font-family:'Yu Gothic';-inkscape-font-specification:'Yu Gothic';fill:#000000;fill-opacity:1;stroke:none;stroke-width:0.191275"
       id="text889-8"
       transform="rotate(-18.250525)"
       aria-label="ж">
      <path
         id="path2003"
         style="font-style:normal;font-variant:normal;font-weight:normal;font-stretch:normal;font-family:'Yu Gothic';-inkscape-font-specification:'Yu Gothic';stroke-width:0.191275"
         d="m 55.108573,113.62399 -0.706072,-0.8032 -1.161843,2.05097 h -0.481922 l 1.371049,-2.32742 -1.21788,-1.49807 h 0.496865 l 1.699803,2.08086 v -2.08086 h 0.42962 v 2.11074 l 1.696067,-2.11074 h 0.508073 l -1.232824,1.50554 1.367314,2.31995 h -0.489394 l -1.1469,-2.03603 -0.702336,0.78826 v 1.24777 h -0.42962 z" />
    </g>
    <g
       style="font-style:normal;font-variant:normal;font-weight:normal;font-stretch:normal;font-size:7.75306px;line-height:1.25;font-family:'Yu Gothic';-inkscape-font-specification:'Yu Gothic';fill:#000000;fill-opacity:1;stroke:none;stroke-width:0.193827"
       id="text893-3"
       transform="rotate(-18.250525)"
       aria-label="п">
      <path
         id="path2000"
         style="font-style:normal;font-variant:normal;font-weight:normal;font-stretch:normal;font-family:'Yu Gothic';-inkscape-font-specification:'Yu Gothic';stroke-width:0.193827"
         d="m 42.836054,122.22956 v 3.87653 h -0.473209 v -3.49039 h -1.976122 v 3.49039 h -0.473209 v -3.87653 z" />
    </g>
    <g
       style="font-style:normal;font-variant:normal;font-weight:normal;font-stretch:normal;font-size:10.5833px;line-height:1.05;font-family:'Yu Gothic';-inkscape-font-specification:'Yu Gothic';fill:#000000;fill-opacity:1;stroke:none;stroke-width:0.264583"
       id="text897-2"
       transform="rotate(-18.250525)"
       aria-label="д">
      <path
         id="path1997"
         style="font-style:normal;font-variant:normal;font-weight:normal;font-stretch:normal;font-family:'Yu Gothic';-inkscape-font-specification:'Yu Gothic';stroke-width:0.264583"
         d="m 51.702933,121.42763 h 0.630451 v 1.45727 H 51.79595 v -0.95084 h -4.3098 v 0.95084 h -0.537434 v -1.45727 h 0.614948 q 0.568439,-1.34358 0.568439,-3.30211 v -1.48311 h 3.57083 z m -0.635618,0 v -4.26846 h -2.309929 v 0.97668 q 0,1.92236 -0.552936,3.29178 z" />
    </g>
    <g
       style="font-style:normal;font-variant:normal;font-weight:normal;font-stretch:normal;font-size:10.5833px;line-height:1.25;font-family:'Yu Gothic';-inkscape-font-specification:'Yu Gothic';fill:#000000;fill-opacity:1;stroke:none;stroke-width:0.264583"
       id="text901-8"
       transform="rotate(-135.66473)"
       aria-label="й">
      <path
         id="path1994"
         style="font-style:normal;font-variant:normal;font-weight:normal;font-stretch:normal;font-family:'Yu Gothic';-inkscape-font-specification:'Yu Gothic';stroke-width:0.264583"
         d="m -126.78076,-35.145377 q 0.0724,0.816485 0.81132,0.816485 0.73897,0 0.82682,-0.816485 h 0.36174 q 0,0.692462 -0.34624,1.038693 -0.30489,0.30489 -0.84232,0.30489 -0.60461,0 -0.9095,-0.397907 -0.26355,-0.346231 -0.26355,-0.945676 z m -1.24023,2.423617 h 0.60462 v 3.007559 l -0.031,1.627802 h 0.093 q 0.0982,-0.186034 0.38757,-0.775144 0.20154,-0.403075 0.34623,-0.666624 l 1.71049,-3.193593 h 0.97668 v 5.29165 h -0.60462 v -3.198761 l 0.031,-1.586462 h -0.093 q -0.3669,0.811318 -0.68729,1.410763 l -1.84484,3.37446 h -0.88884 z" />
    </g>
    <g
       style="font-style:normal;font-variant:normal;font-weight:normal;font-stretch:normal;font-size:7.92099px;line-height:1.25;font-family:'Yu Gothic';-inkscape-font-specification:'Yu Gothic';fill:#000000;fill-opacity:1;stroke:none;stroke-width:0.198025"
       id="text905-6"
       transform="rotate(-18.250525)"
       aria-label="θ">
      <path
         id="path1991"
         style="font-style:normal;font-variant:normal;font-weight:normal;font-stretch:normal;font-family:'Yu Gothic';-inkscape-font-specification:'Yu Gothic';stroke-width:0.198025"
         d="m 48.939521,129.23448 q 0.649769,0 0.978521,0.51053 0.290075,0.44478 0.290075,1.21832 0,1.04427 -0.28234,2.00345 -0.297811,1.00173 -0.816079,1.59348 -0.572415,0.64977 -1.303405,0.64977 -1.315008,0 -1.315008,-1.783 0,-0.83154 0.270737,-1.76365 0.301679,-1.04427 0.812211,-1.67857 0.603357,-0.75033 1.365288,-0.75033 z m 0.68071,2.69577 q 0.08896,-0.44865 0.08896,-0.99013 0.0116,-1.31114 -0.792872,-1.31114 -0.649769,0 -1.140963,0.81608 -0.34809,0.58402 -0.56468,1.48519 z m -0.06188,0.3945 h -2.425029 q -0.143104,0.66524 -0.143104,1.1487 0,1.34208 0.816078,1.34208 0.672975,0 1.191243,-0.88957 0.394502,-0.67684 0.560812,-1.60121 z" />
    </g>
    <path
       id="path1738"
       d="m 71.911674,99.478687 c 0.534351,-0.17199 0.839002,0.0399 1.197436,0.257849 0.383876,0.22717 0.751017,0.409394 0.817941,0.924654 0.06027,0.49507 -0.154165,0.60907 -0.40706,1.0507 -0.275881,0.48054 -0.624851,0.94746 -1.283146,1.16454 0.02402,-0.19621 -0.08125,-0.41078 -0.125968,-0.73644 0.281287,-0.0704 0.495614,-0.22835 0.642983,-0.47398 0.110893,-0.1933 0.510191,-0.48744 0.489187,-0.64619 -0.0302,-0.22737 -0.168289,-0.55633 -0.319771,-0.7034 -0.152862,-0.13766 -0.415264,-0.31026 -0.645465,-0.23434 -2.447404,0.80705 -4.064151,0.40339 -4.377772,-2.014183 -0.267527,-2.114851 1.082521,-4.93161 3.199697,-7.17461 l -3.624418,1.2045 -0.175107,-0.69654 5.2704,-1.737971 0.0097,0.720164 c -2.725935,2.528824 -4.384938,5.494711 -4.126561,7.527497 0.222984,1.74893 1.753589,2.129793 3.457887,1.56777 z"
       style="font-style:italic;font-variant:normal;font-weight:normal;font-stretch:normal;font-size:13.0638px;line-height:1.25;font-family:sans-serif;-inkscape-font-specification:'sans-serif Italic';fill:#000000;fill-opacity:1;stroke:none;stroke-width:0;stroke-miterlimit:4;stroke-dasharray:none;stroke-opacity:1" />
    <g
       style="font-style:normal;font-variant:normal;font-weight:normal;font-stretch:normal;font-size:10.5833px;line-height:1.25;font-family:'Yu Gothic';-inkscape-font-specification:'Yu Gothic';fill:#000000;fill-opacity:1;stroke:none;stroke-width:0.264583"
       id="text913-5"
       transform="rotate(1.992849)"
       aria-label="ψ">
      <path
         id="path1988"
         style="font-style:normal;font-variant:normal;font-weight:normal;font-stretch:normal;font-family:'Yu Gothic';-inkscape-font-specification:'Yu Gothic';stroke-width:0.264583"
         d="m 71.801369,94.233757 -0.940508,3.400298 q -0.30489,1.121375 -0.981849,1.591629 -0.594277,0.41341 -1.663976,0.449584 l -0.475422,1.767332 h -0.656288 l 0.496092,-1.788003 q -0.868161,-0.09819 -1.281571,-0.542601 -0.335896,-0.351398 -0.335896,-0.888831 0,-0.408243 0.129191,-0.847491 L 66.9438,94.233757 h 0.645953 l -0.899167,3.312449 q -0.103352,0.392739 -0.103352,0.697629 0,0.842323 1.121375,0.935341 l 1.999871,-7.508562 h 0.635618 l -1.999871,7.529232 q 0.878496,-0.05684 1.317745,-0.496092 0.361733,-0.361734 0.573606,-1.136878 l 0.91467,-3.333119 z" />
    </g>
    <g
       style="font-style:normal;font-variant:normal;font-weight:normal;font-stretch:normal;font-size:10.5833px;line-height:1.25;font-family:'Yu Gothic';-inkscape-font-specification:'Yu Gothic';fill:#000000;fill-opacity:1;stroke:none;stroke-width:0.264583"
       id="text917-6"
       transform="rotate(-18.250525)"
       aria-label="Ω">
      <path
         id="path1985"
         style="font-style:normal;font-variant:normal;font-weight:normal;font-stretch:normal;font-family:'Yu Gothic';-inkscape-font-specification:'Yu Gothic';stroke-width:0.264583"
         d="m 26.834104,114.96578 q 1.519282,0 2.449455,1.14722 0.821652,1.00768 0.821652,2.50629 0,1.24024 -0.671791,2.2841 -0.496092,0.77514 -1.30741,1.35391 h 1.989537 v 0.57361 h -2.775016 v -0.5426 q 2.036045,-1.4211 2.036045,-3.66902 0,-1.43143 -0.795815,-2.29959 -0.697629,-0.75964 -1.746657,-0.75964 -1.204057,0 -1.932693,0.98185 -0.63045,0.84749 -0.63045,2.07738 0,2.2841 2.04638,3.66902 v 0.5426 h -2.775016 v -0.57361 h 1.979201 q -1.979201,-1.39526 -1.979201,-3.62767 0,-1.72082 1.069699,-2.76985 0.909502,-0.894 2.22208,-0.894 z" />
    </g>
    <g
       style="font-style:normal;font-variant:normal;font-weight:normal;font-stretch:normal;font-size:10.5833px;line-height:1.25;font-family:'Yu Gothic';-inkscape-font-specification:'Yu Gothic';fill:#000000;fill-opacity:1;stroke:none;stroke-width:0.264583"
       id="text921-8"
       transform="rotate(-102.02995)"
       aria-label=" λ">
      <path
         id="path1980"
         style="font-style:normal;font-variant:normal;font-weight:normal;font-stretch:normal;font-family:'Yu Gothic';-inkscape-font-specification:'Yu Gothic';stroke-width:0.264583"
         d="m -112.54887,67.853813 q 0,0 0,0 z" />
      <path
         id="path1982"
         style="font-style:normal;font-variant:normal;font-weight:normal;font-stretch:normal;font-family:'Yu Gothic';-inkscape-font-specification:'Yu Gothic';stroke-width:0.264583"
         d="m -104.97829,59.787148 q 0.2067,-0.02067 0.32556,-0.02067 0.56327,0 0.81648,0.310058 0.21704,0.268716 0.28422,0.868161 l 0.61495,5.544864 q 0.0465,0.439248 0.22738,0.60978 0.14469,0.144693 0.42891,0.144693 0.1757,0 0.37723,-0.03617 l -0.13435,0.506427 q -0.19637,0.03617 -0.37207,0.03617 -0.59945,0 -0.863,-0.30489 -0.23254,-0.273885 -0.28938,-0.883665 l -0.36174,-3.415801 -2.61482,4.475165 h -0.75964 l 3.26078,-5.343326 -0.14987,-1.271236 q -0.0517,-0.428913 -0.2067,-0.594277 -0.13436,-0.139526 -0.39791,-0.139526 -0.20154,0 -0.33589,0.02584 z" />
    </g>
    <g
       style="font-style:normal;font-variant:normal;font-weight:normal;font-stretch:normal;font-size:7.90784px;line-height:1.25;font-family:'Yu Gothic';-inkscape-font-specification:'Yu Gothic';fill:#000000;fill-opacity:1;stroke:none;stroke-width:0.197697"
       id="text873-5-1"
       transform="rotate(-52.404421)"
       aria-label="a">
      <path
         id="path1977"
         style="font-style:normal;font-variant:normal;font-weight:normal;font-stretch:normal;font-family:'Yu Gothic';-inkscape-font-specification:'Yu Gothic';stroke-width:0.197697"
         d="m -34.948895,101.86626 q 0.355235,-1.01551 1.556083,-1.01551 1.401634,0 1.401634,1.31283 v 1.39391 q 0,0.79155 0.09653,1.34371 h -0.459488 q -0.0502,-0.22781 -0.08881,-0.69502 -0.521269,0.79155 -1.428662,0.79155 -0.629384,0 -0.961452,-0.36295 -0.281871,-0.30504 -0.281871,-0.78384 0,-1.07342 1.335993,-1.29738 0.521268,-0.0888 1.312824,-0.12742 v -0.21237 q 0,-0.56374 -0.24712,-0.78383 -0.21623,-0.19306 -0.687302,-0.19306 -0.849475,0 -1.088872,0.79541 z m 2.482783,0.92284 q -0.594632,0.0116 -1.208571,0.12742 -0.949867,0.19306 -0.949867,0.91126 0,0.38612 0.24712,0.59463 0.220091,0.1892 0.590771,0.1892 0.795417,0 1.320547,-0.8572 z" />
    </g>
    <g
       style="font-style:normal;font-variant:normal;font-weight:normal;font-stretch:normal;font-size:7.75306px;line-height:1.25;font-family:'Yu Gothic';-inkscape-font-specification:'Yu Gothic';fill:#000000;fill-opacity:1;stroke:none;stroke-width:0.193827"
       id="text893-3-8"
       transform="rotate(-18.250524)"
       aria-label="п">
      <path
         id="path1974"
         style="font-style:normal;font-variant:normal;font-weight:normal;font-stretch:normal;font-family:'Yu Gothic';-inkscape-font-specification:'Yu Gothic';stroke-width:0.193827"
         d="m 45.375994,117.35341 v 3.87653 h -0.473209 v -3.49039 h -1.976122 v 3.49039 h -0.473209 v -3.87653 z" />
    </g>
    <g
       style="font-style:normal;font-variant:normal;font-weight:normal;font-stretch:normal;font-size:9.88663px;line-height:1.25;font-family:'Yu Gothic';-inkscape-font-specification:'Yu Gothic';fill:#000000;fill-opacity:1;stroke:none;stroke-width:0.247166"
       id="text877-8-2"
       transform="matrix(-0.52634994,-0.86324733,0.8543423,-0.49870109,0,0)"
       aria-label="A">
      <path
         id="path1971"
         style="font-style:normal;font-variant:normal;font-weight:normal;font-stretch:normal;font-family:'Yu Gothic';-inkscape-font-specification:'Yu Gothic';stroke-width:0.247166"
         d="m -119.50183,19.665861 2.37993,7.207392 h -0.69032 l -0.76274,-2.379936 h -2.71786 l -0.78205,2.379936 h -0.6517 l 2.38476,-7.207392 z m 0.77722,4.301263 -0.59861,-1.87788 q -0.32344,-0.979974 -0.57446,-1.911673 h -0.0917 q -0.26068,0.965492 -0.55998,1.902018 l -0.59378,1.887535 z" />
    </g>
    <g
       style="font-style:normal;font-variant:normal;font-weight:normal;font-stretch:normal;font-size:5.81721px;line-height:1.25;font-family:'Yu Gothic';-inkscape-font-specification:'Yu Gothic';fill:#000000;fill-opacity:1;stroke:none;stroke-width:0.14543"
       id="text885-6-2"
       transform="rotate(-18.250524)"
       aria-label="Z">
      <path
         id="path1968"
         style="font-style:normal;font-variant:normal;font-weight:normal;font-stretch:normal;font-family:'Yu Gothic';-inkscape-font-specification:'Yu Gothic';stroke-width:0.14543"
         d="m 39.699674,115.39473 v 0.28689 l -2.476859,3.62723 h 2.493902 v 0.32665 h -2.959733 v -0.28688 l 2.465497,-3.62724 h -2.34904 v -0.32665 z" />
    </g>
    <g
       style="font-style:normal;font-weight:normal;font-size:5.70776px;line-height:1.25;font-family:sans-serif;fill:#000000;fill-opacity:1;stroke:none;stroke-width:0.142694"
       id="text1909"
       transform="matrix(0.16559872,0.86075722,-1.1203022,0.21553187,0,0)"
       aria-label="μ">
      <path
         id="path1965"
         style="stroke-width:0.142694"
         d="m 121.22908,-40.645837 v -4.30869 h 0.5128 v 1.939747 q 0,0.404114 0.19231,0.610351 0.1923,0.206237 0.56854,0.206237 0.41248,0 0.61871,-0.234107 0.20903,-0.234107 0.20903,-0.702322 v -1.819906 h 0.51281 v 2.402387 q 0,0.16722 0.0474,0.248043 0.0502,0.07804 0.15329,0.07804 0.0251,0 0.0697,-0.01393 0.0446,-0.01672 0.12263,-0.05017 v 0.412475 q -0.11426,0.0641 -0.21738,0.09476 -0.10034,0.03066 -0.19788,0.03066 -0.1923,0 -0.30657,-0.108692 -0.11427,-0.108693 -0.15607,-0.331653 -0.13935,0.220173 -0.3428,0.331653 -0.20066,0.108692 -0.47379,0.108692 -0.28427,0 -0.48494,-0.108692 -0.19787,-0.108693 -0.31493,-0.326079 v 1.541207 z" />
    </g>
    <g
       style="font-style:normal;font-weight:normal;font-size:6.98161px;line-height:1.25;font-family:sans-serif;fill:#000000;fill-opacity:1;stroke:none;stroke-width:0.174541"
       id="text1913"
       transform="matrix(0.28923747,0.73176953,-1.1819034,0.46715631,0,0)"
       aria-label="ч">
      <path
         id="path1962"
         style="font-style:italic;font-variant:normal;font-weight:normal;font-stretch:normal;font-family:sans-serif;-inkscape-font-specification:'sans-serif Italic';stroke-width:0.174541"
         d="m 149.41229,-30.814951 h 0.62725 l -0.74316,3.818068 h -0.62725 l 0.31362,-1.605634 h -1.16928 q -0.52158,0 -0.80793,-0.323854 -0.17386,-0.197722 -0.17386,-0.548848 0,-0.16704 0.0409,-0.371579 l 0.18749,-0.968153 h 0.62726 l -0.17727,0.9102 q -0.0273,0.143177 -0.0273,0.262492 0,0.53862 0.58293,0.53862 h 1.01247 z" />
    </g>
    <g
       style="font-style:normal;font-variant:normal;font-weight:normal;font-stretch:normal;font-size:4.41294px;line-height:1.25;font-family:'Yu Gothic';-inkscape-font-specification:'Yu Gothic';fill:#000000;fill-opacity:1;stroke:none;stroke-width:0.110324"
       id="text913-52"
       transform="rotate(-52.396991)"
       aria-label="ψ">
      <path
         id="path1959"
         style="font-style:normal;font-variant:normal;font-weight:normal;font-stretch:normal;font-family:'Yu Gothic';-inkscape-font-specification:'Yu Gothic';stroke-width:0.110324"
         d="m -28.130277,104.00656 -0.392165,1.41783 q -0.127131,0.46758 -0.409404,0.66367 -0.247797,0.17238 -0.693831,0.18746 l -0.198238,0.73693 h -0.273654 l 0.206857,-0.74555 q -0.361999,-0.0409 -0.53438,-0.22625 -0.140059,-0.14652 -0.140059,-0.37061 0,-0.17023 0.05387,-0.35338 l 0.355535,-1.3101 h 0.269344 l -0.374927,1.3812 q -0.04309,0.16376 -0.04309,0.29089 0,0.35123 0.467582,0.39001 l 0.83389,-3.13086 h 0.265035 l -0.83389,3.13948 q 0.366308,-0.0237 0.549462,-0.20685 0.150833,-0.15084 0.239178,-0.47405 l 0.381392,-1.38982 z" />
    </g>
    <g
       style="font-style:normal;font-weight:normal;font-size:5.70775px;line-height:1.25;font-family:sans-serif;fill:#000000;fill-opacity:1;stroke:none;stroke-width:0.142694"
       id="text1909-8"
       transform="matrix(-0.69795218,0.53027226,-0.69016579,-0.9084064,0,0)"
       aria-label="μ">
      <path
         id="path1956"
         style="stroke-width:0.142694"
         d="m -6.5236583,-97.975074 v -4.308686 h 0.5128057 v 1.93975 q 0,0.40411 0.1923021,0.610347 0.1923021,0.206237 0.5685454,0.206237 0.4124741,0 0.6187112,-0.234107 0.209024,-0.234107 0.209024,-0.702317 v -1.81991 h 0.5128057 v 2.402387 q 0,0.167219 0.047379,0.248042 0.050166,0.07803 0.1532843,0.07803 0.025083,0 0.069675,-0.01394 0.044592,-0.01672 0.1226275,-0.05017 v 0.412475 q -0.1142665,0.0641 -0.217385,0.09476 -0.1003316,0.03066 -0.1978761,0.03066 -0.1923022,0 -0.3065686,-0.108692 -0.1142665,-0.108693 -0.1560713,-0.331652 -0.1393494,0.220172 -0.3427994,0.331652 -0.2006631,0.108692 -0.4737879,0.108692 -0.2842727,0 -0.4849358,-0.108692 -0.197876,-0.108693 -0.3149295,-0.326078 v 1.541204 z" />
    </g>
  </g>
</svg>
