<?xml version="1.0" encoding="UTF-8"?>
<svg width="210.1mm" height="15.25mm" version="1.1" viewBox="0 0 210.1 15.25" xmlns="http://www.w3.org/2000/svg">
 <g transform="translate(0 -145.1)">
  <g transform="translate(-22.44)" stroke-width=".9">
   <g stroke-width=".9">
    <path d="m100.7 150.4c3.161-1.797 5.187-2.505 9.724-2.312 1.634 4.819 4.756 4.216 6.279 5.695 1.522 1.48 2.668 4.882 6.41 6.486m-37.52-8.434c3.714-3.537 8.732-6.908 12.01-6.519 1.324 2.99 6.862 10.67 8.342 10.78m-42.11 4.17c13.04-3.993 10.48-11.22 20.5-11.68 0.3673 3.604 2.104 3.504 3.265 5.293 0.7524 1.16 1.608 2.673 2.971 2.998m-68.07 3.392h210.2" fill="none" stroke="#000" stroke-width=".7"/>
   </g>
  </g>
  <path d="m24.53 154.4c1.336 0.7684 1.285 1.12 1.285 1.12s-1.815-0.5176-3.051 1.019c1.737-0.8352 2.973-0.5361 2.973-0.5361s-1.168 0.2863-1.436 1.689c1.102-1.303 2.036-1.29 2.036-1.29l-0.03341 3.862h0.5669l0.03341-3.935s0.6873-0.2084 2.725 0.8607c-1.503-1.604-2.154-1.532-2.154-1.532s-0.2961-0.2146 2.31-0.816c-2.305-0.5011-3.022 0.5497-3.022 0.5497s-0.4959-0.8251-2.233-0.9922z" stroke="#000" stroke-linecap="round" stroke-linejoin="round" stroke-width=".265"/>
  <path d="m14.6 150.2c1.336 0.7684 1.805 1.545 1.805 1.545s-2.571-0.4467-3.807 1.09c1.737-0.8352 3.469-0.607 3.469-0.607s-1.428 0.4516-1.696 1.855c1.102-1.303 2.296-1.455 2.296-1.455l-0.03341 7.654h0.5669l0.03341-7.727s1.089 0.1223 3.127 1.191c-1.503-1.604-2.555-1.863-2.555-1.863s0.5071-0.6871 3.113-1.288c-2.305-0.5011-3.919 0.9277-3.919 0.9277s-0.6613-1.156-2.399-1.323z" stroke="#000" stroke-linecap="round" stroke-linejoin="round" stroke-width=".265"/>
  <path transform="scale(.2646)" d="m418 595.8v2e-3c-0.4313 0-0.6426 0.6898-0.6426 1.121v3.291h-1.525v-2.648c0-0.3031-0.2934-0.6846-0.6016-0.6816-0.3084 4e-3 -0.5996 0.4092-0.5996 0.7227v3.91c0.9082 0 1.892 0.0195 2.768 0.0195v4.174h1.162v-3.01h2.658v-3.09c0-0.3375-0.223-0.8418-0.5605-0.8418-0.3375 0-0.5625 0.5042-0.5625 0.8418v1.967h-1.455v-4.654c0-0.4313-0.2095-1.123-0.6406-1.123z" stroke="#000" stroke-linecap="round" stroke-linejoin="round" stroke-width=".5604"/>
  <path d="m123.5 156.4c-0.1676 0-0.2493 0.2686-0.2493 0.4361v1.278h-0.5926v-1.029c0-0.1178-0.1138-0.2662-0.2335-0.2651-0.1198 3e-3 -0.2335 0.159-0.2335 0.2808v1.52c0.3528 0 0.7351 8e-3 1.075 8e-3v1.621h0.4519v-1.169h1.033v-1.2c0-0.1311-0.0872-0.3275-0.2184-0.3275-0.1311 0-0.2184 0.1964-0.2184 0.3275v0.7637h-0.5651v-1.808c0-0.1676-0.0818-0.4361-0.2493-0.4361z" stroke="#000" stroke-linecap="round" stroke-linejoin="round" stroke-width=".2177"/>
  <g transform="translate(-6.131 1.532)" stroke="#000" stroke-width=".2">
   <g stroke="#000" stroke-width=".2">
    <g transform="translate(4.276)" stroke="#000" stroke-width=".2">
     <g>
      <path d="m144.6 148.7h1v1h1v1h1v1h1v1h1v1h1v1h1v1h1v1h1v1h1l0.0125 1-7.513 4e-5s0-3.441-2-3.441-2 3.441-2 3.441l-7.5-4e-5v-1h1v-1h1v-1h1v-1h1v-1h1v-1h1v-1h1v-1h1v-1h1v-1h1" stroke="#000" stroke-width=".2"/>
     </g>
    </g>
   </g>
  </g>
  <path d="m160.4 157.6v5.3e-4c-0.1141 0-0.17 0.1825-0.17 0.2966v0.8708h-0.4036v-0.7007c0-0.0802-0.0776-0.1811-0.1592-0.1804-0.0816 1e-3 -0.1586 0.1082-0.1586 0.1912v1.035c0.2403 0 0.5005 5e-3 0.7322 5e-3v1.104h0.3075v-0.7963h0.7033v-0.8175c0-0.0893-0.059-0.2227-0.1483-0.2227-0.0893 0-0.1488 0.1334-0.1488 0.2227v0.5204h-0.385v-1.231c0-0.1141-0.0554-0.2971-0.1695-0.2971z" stroke="#000" stroke-linecap="round" stroke-linejoin="round" stroke-width=".1483"/>
  <path d="m180.4 150.2c1.336 0.7684 1.805 1.545 1.805 1.545s-2.571-0.4467-3.807 1.09c1.737-0.8352 3.469-0.607 3.469-0.607s-1.428 0.4516-1.696 1.855c1.102-1.303 2.296-1.455 2.296-1.455l-0.0334 7.654h0.5669l0.0334-7.727s1.089 0.1223 3.127 1.191c-1.503-1.604-2.555-1.863-2.555-1.863s0.5071-0.6871 3.113-1.288c-2.305-0.5011-3.919 0.9277-3.919 0.9277s-0.6613-1.156-2.399-1.323z" stroke="#000" stroke-linecap="round" stroke-linejoin="round" stroke-width=".265"/>
  <path d="m173.7 154.4c1.336 0.7684 1.285 1.12 1.285 1.12s-1.815-0.5176-3.051 1.019c1.737-0.8352 2.973-0.5361 2.973-0.5361s-1.168 0.2863-1.436 1.689c1.102-1.303 2.036-1.29 2.036-1.29l-0.0334 3.862h0.5669l0.0334-3.935s0.6873-0.2084 2.725 0.8607c-1.503-1.604-2.154-1.532-2.154-1.532s-0.2961-0.2146 2.31-0.816c-2.305-0.5011-3.022 0.5497-3.022 0.5497s-0.4959-0.8251-2.233-0.9922z" stroke="#000" stroke-linecap="round" stroke-linejoin="round" stroke-width=".265"/>
  <path d="m198.5 156.4c-0.1676 0-0.2493 0.2686-0.2493 0.4361v1.278h-0.5926v-1.029c0-0.1178-0.1138-0.2662-0.2335-0.2651-0.1198 3e-3 -0.2335 0.159-0.2335 0.2808v1.52c0.3528 0 0.7351 8e-3 1.075 8e-3v1.621h0.4519v-1.169h1.033v-1.2c0-0.1311-0.0872-0.3275-0.2184-0.3275-0.1311 0-0.2184 0.1964-0.2184 0.3275v0.7637h-0.5651v-1.808c0-0.1676-0.0818-0.4361-0.2493-0.4361z" stroke="#000" stroke-linecap="round" stroke-linejoin="round" stroke-width=".2177"/>
 </g>
</svg>
